<?xml version="1.0" standalone="no"?><svg xmlns="http://www.w3.org/2000/svg" viewBox="0 0 1440 320"><path fill="#b9c8df" fill-opacity="1" d="M0,160L40,176C80,192,160,224,240,234.7C320,245,400,235,480,202.7C560,171,640,117,720,122.7C800,128,880,192,960,192C1040,192,1120,128,1200,133.3C1280,139,1360,213,1400,250.7L1440,288L1440,320L1400,320C1360,320,1280,320,1200,320C1120,320,1040,320,960,320C880,320,800,320,720,320C640,320,560,320,480,320C400,320,320,320,240,320C160,320,80,320,40,320L0,320Z"></path></svg>